<?xml version="1.0" standalone="no"?>
<!DOCTYPE svg PUBLIC "-//W3C//DTD SVG 20010904//EN"
 "http://www.w3.org/TR/2001/REC-SVG-20010904/DTD/svg10.dtd">
<svg version="1.0" xmlns="http://www.w3.org/2000/svg"
 width="800.000000pt" height="800.000000pt" viewBox="0 0 800.000000 800.000000"
 preserveAspectRatio="xMidYMid meet">

<g transform="translate(0.000000,800.000000) scale(0.100000,-0.100000)"
fill="#000000" stroke="none">
<path d="M0 4000 l0 -4000 4000 0 4000 0 0 4000 0 4000 -4000 0 -4000 0 0
-4000z m2533 2730 c133 -35 399 -156 688 -315 l157 -85 118 20 c380 64 653 64
1029 -1 l120 -20 100 56 c245 139 510 266 682 327 114 40 222 48 273 20 50
-27 87 -94 105 -186 20 -104 20 -401 -1 -597 l-16 -151 25 -27 c204 -222 321
-438 371 -681 27 -134 39 -324 34 -527 -5 -176 -4 -193 11 -189 255 73 956
256 977 256 72 0 118 -77 84 -141 -16 -29 -52 -44 -235 -92 -413 -110 -784
-209 -831 -222 -51 -15 -52 -16 -64 -66 -7 -27 -11 -52 -9 -53 4 -4 217 -62
379 -104 269 -70 690 -185 713 -194 52 -20 73 -80 45 -131 -28 -54 -68 -58
-203 -23 -49 14 -286 77 -525 141 -239 65 -445 120 -456 122 -18 4 -28 -8 -64
-79 -95 -188 -206 -319 -384 -452 -422 -316 -998 -486 -1651 -486 -680 0
-1308 200 -1717 546 -137 117 -225 227 -304 381 -24 47 -45 88 -48 90 -2 2
-141 -32 -308 -77 -166 -45 -328 -88 -358 -96 -30 -8 -139 -37 -241 -64 -102
-28 -201 -50 -221 -50 -37 0 -72 25 -83 61 -11 33 4 88 28 103 28 18 75 32
1017 282 52 14 97 27 99 29 10 10 -23 105 -37 109 -27 8 -356 97 -727 196
-374 99 -385 104 -385 176 0 46 45 94 88 94 17 0 239 -56 494 -124 255 -68
473 -126 484 -128 l22 -6 -6 187 c-5 196 8 402 34 531 45 218 156 434 324 628
l71 82 -15 150 c-18 170 -21 482 -6 580 6 36 23 90 38 120 50 99 129 121 285
80z m-304 -3642 c334 -319 818 -517 1436 -590 159 -18 568 -15 730 6 356 46
636 123 891 245 165 80 240 125 373 224 120 90 138 96 168 50 24 -36 13 -288
-17 -403 -31 -118 -103 -278 -174 -385 -88 -133 -288 -330 -438 -429 -252
-165 -562 -283 -873 -331 -144 -22 -466 -31 -606 -16 -512 54 -935 239 -1249
548 -220 215 -341 434 -385 696 -20 116 -18 398 3 435 23 41 58 29 141 -50z"/>
<path d="M3175 4990 c-370 -31 -589 -183 -662 -460 -26 -99 -23 -313 6 -460
56 -284 183 -466 411 -588 158 -85 347 -116 853 -143 253 -14 520 -4 857 31
214 22 253 29 361 71 342 132 523 437 523 884 0 100 -5 159 -17 205 -67 254
-264 409 -572 449 -139 18 -182 19 -540 3 -334 -14 -625 -11 -1050 12 -38 3
-115 1 -170 -4z m28 -484 c44 -19 92 -71 119 -131 17 -39 22 -68 22 -135 0
-97 -22 -161 -77 -219 -138 -145 -337 -16 -337 219 0 192 136 325 273 266z
m1757 -6 c78 -40 130 -144 130 -258 0 -85 -12 -128 -53 -189 -95 -141 -259
-119 -336 46 -21 46 -26 70 -26 141 0 71 5 94 27 140 59 125 158 171 258 120z"/>
</g>
</svg>
